# xmcd
#
# Track frame offsets:
# 150
# 15307
# 26412
# 39337
# 51172
# 62680
# 73534
# 83898
# 91917
# 109986
# 127728
# 142201
# 153807
# 171132
# 184036
# 201373
# 211672
# 222523
#
# Disc length: 3099 seconds
#
#
# Revision: 0
# Processed by: cddbd v1.5.1PL2 Copyright (c) Steve Scherf et al.
# Submitted via: FreeRIP 2.945 
#
DISCID=f20c1912
DTITLE=Various Country Artists - Country Greats
DYEAR=1900
DGENRE=Country
TTITLE0=Okie from Muskogee - Burris and Haggard
TTITLE1=Am I Losing You - Jim Reeves
TTITLE2=Mexican Rose - Freddie Fender
TTITLE3=Don't Think Twice It's Alright - Bob Dylan
TTITLE4=Fightin' Side of Me - Merle Haggard
TTITLE5=I Can't Forget You - A King
TTITLE6=I Feel Sorry for Him - Willie Nelson
TTITLE7=Waiting for a Train - Rodgers
TTITLE8=Footlights (Live) - Merle Haggard
TTITLE9=Good Ole Boys Like Me - McDill
TTITLE10=Folsom Prison Blues (Live) Johnny Cash
TTITLE11=Crying - Roy Orbison and Melson
TTITLE12=Jambalaya - Hank Williams
TTITLE13=Sleep Comes Easy - Settle
TTITLE14=I Believe in You - Cook and Hogin
TTITLE15=Lovesick Blues - C Friend and I Mills
TTITLE16=Try a Little Kindness (Live) - Glen Campbell and Austin and Sapau
TTITLE17=Get Rhythm - Johnny Cash
EXTD=
EXTT0=
EXTT1=
EXTT2=
EXTT3=
EXTT4=
EXTT5=
EXTT6=
EXTT7=
EXTT8=
EXTT9=
EXTT10=
EXTT11=
EXTT12=
EXTT13=
EXTT14=
EXTT15=
EXTT16=
EXTT17=
PLAYORDER=
